<?xml version="1.0" encoding="UTF-8" standalone="no"?>
<!DOCTYPE svg PUBLIC "-//W3C//DTD SVG 1.1//EN" "http://www.w3.org/Graphics/SVG/1.1/DTD/svg11.dtd">
<svg width="100%" height="100%" viewBox="0 0 100 100" version="1.1" xmlns="http://www.w3.org/2000/svg" xmlns:xlink="http://www.w3.org/1999/xlink" xml:space="preserve" xmlns:serif="http://www.serif.com/" style="fill-rule:evenodd;clip-rule:evenodd;stroke-linejoin:round;stroke-miterlimit:2;">
    <g transform="matrix(0.944903,0,0,0.960455,0.575656,0.360917)">
        <path d="M6.215,9.127L6.215,92.421C6.215,94.721 8.11,96.585 10.448,96.585L95.113,96.585C97.449,96.585 99.346,94.719 99.346,92.421C99.346,90.122 97.449,88.256 95.113,88.256L14.681,88.256C14.681,88.256 14.681,9.127 14.681,9.127C14.681,6.828 12.784,4.962 10.448,4.962C8.112,4.962 6.215,6.828 6.215,9.127Z" style="fill:white;"/>
    </g>
    <g transform="matrix(1,0,0,0.721263,-1.89239,29.4226)">
        <path d="M22.029,50L22.029,82.777C22.029,85.838 23.821,88.323 26.029,88.323C28.237,88.323 30.029,85.838 30.029,82.777L30.029,50C30.029,46.939 28.237,44.454 26.029,44.454C23.821,44.454 22.029,46.939 22.029,50Z" style="fill:white;"/>
    </g>
    <g transform="matrix(1,0,0,2.28452,11.3427,-99.9798)">
        <path d="M22.029,50L22.029,82.777C22.029,83.744 23.821,84.528 26.029,84.528C28.237,84.528 30.029,83.744 30.029,82.777L30.029,50C30.029,49.034 28.237,48.249 26.029,48.249C23.821,48.249 22.029,49.034 22.029,50Z" style="fill:white;"/>
    </g>
    <g transform="matrix(1,0,0,1.22036,28.6386,-11.8912)">
        <path d="M22.029,50L22.029,82.777C22.029,84.586 23.821,86.055 26.029,86.055C28.237,86.055 30.029,84.586 30.029,82.777L30.029,50C30.029,48.191 28.237,46.722 26.029,46.722C23.821,46.722 22.029,48.191 22.029,50Z" style="fill:white;"/>
    </g>
    <g transform="matrix(1,0,0,1.5873,42.8293,-42.2656)">
        <path d="M22.029,50L22.029,82.777C22.029,84.168 23.821,85.297 26.029,85.297C28.237,85.297 30.029,84.168 30.029,82.777L30.029,50C30.029,48.609 28.237,47.48 26.029,47.48C23.821,47.48 22.029,48.609 22.029,50Z" style="fill:white;"/>
    </g>
    <g transform="matrix(1,0,0,0.496021,59.051,48.0675)">
        <path d="M22.029,50L22.029,82.777C22.029,87.228 23.821,90.841 26.029,90.841C28.237,90.841 30.029,87.228 30.029,82.777L30.029,50C30.029,45.549 28.237,41.936 26.029,41.936C23.821,41.936 22.029,45.549 22.029,50Z" style="fill:white;"/>
    </g>
</svg>
